<svg width="44" height="40" viewBox="0 0 44 40" fill="none" xmlns="http://www.w3.org/2000/svg">
<path d="M28.6979 37.3356L28.5719 37.3801C27.7762 37.6624 26.9639 37.8955 26.1396 38.0781C25.8681 38.1379 25.5962 38.1918 25.3237 38.2398C24.5016 38.3823 23.6715 38.4732 22.8381 38.512L22.6393 38.5217C22.3225 38.5335 22.0028 38.538 21.6854 38.535C21.4539 38.535 21.2255 38.5276 21.0037 38.5187L20.8079 38.5091H20.8034C19.2098 38.4329 17.6308 38.1687 16.0992 37.7221C15.7531 37.6202 15.4096 37.5087 15.0689 37.3875L14.9428 37.3423C14.8071 37.2926 14.6713 37.2421 14.5385 37.1895C14.1232 37.03 13.71 36.8542 13.3057 36.6665L13.0335 36.536C12.9467 36.4945 12.8614 36.4507 12.7754 36.4077C12.2636 36.1532 11.7562 35.8736 11.2644 35.5717C10.2234 34.9337 9.24118 34.2044 8.3293 33.3924C7.97103 33.0727 7.62463 32.7412 7.29825 32.4066L7.24485 32.351C4.15764 29.1626 2.19704 25.0525 1.66164 20.6468C1.36066 18.1904 1.50489 15.6998 2.08741 13.2945C2.66775 10.8714 3.68746 8.57532 5.09598 6.52005C5.7986 5.48636 6.59302 4.51815 7.4696 3.62719C8.35234 2.73237 9.31107 1.91584 10.335 1.18681C10.9363 0.757854 11.5603 0.361674 12.2042 0C11.5373 0.320234 10.889 0.677835 10.2623 1.0711C9.18469 1.7464 8.17051 2.51802 7.23224 3.37648C7.15361 3.44472 7.08388 3.5137 7.00971 3.58714L6.88658 3.70582L6.74935 3.83859C6.68037 3.90461 6.61213 3.97063 6.54463 4.03738L6.17375 4.4231C6.07361 4.5262 5.97941 4.62486 5.8904 4.7287L5.71831 4.92304C5.56551 5.09513 5.40677 5.27315 5.26287 5.45562L4.95504 5.8317C4.89051 5.91477 4.82449 6.0023 4.75922 6.08983L4.66501 6.21444L4.51666 6.4073C4.47067 6.46812 4.42246 6.53117 4.38018 6.59496L3.97295 7.19504L3.52197 7.90491L3.10065 8.63257L2.70826 9.37878L2.65708 9.48559C2.08937 10.6416 1.62903 11.8473 1.28186 13.0876C0.931468 14.3287 0.698275 15.5999 0.58535 16.8846C0.468415 18.174 0.471643 19.4715 0.594993 20.7603C0.838095 23.3536 1.56044 25.8793 2.72532 28.209C3.30456 29.3763 3.99249 30.4864 4.77999 31.5247C5.56816 32.5634 6.44822 33.5291 7.40952 34.4101C7.4607 34.4569 7.5104 34.5021 7.56232 34.5473C9.23612 36.0508 11.1373 37.28 13.1952 38.1894C13.4749 38.3132 13.7523 38.429 14.0193 38.5343L14.7307 38.7998C14.8004 38.8251 14.8664 38.8495 14.9332 38.8696L15.8752 39.1663L16.8298 39.414C16.8869 39.4303 16.9426 39.4422 17.0019 39.4541L17.7874 39.618C18.7917 39.8072 19.8079 39.9265 20.8286 39.9748C21.1061 39.9889 21.3931 39.9978 21.6817 40C22.0592 40 22.4442 39.9956 22.8277 39.9777C24.7421 39.8949 26.6359 39.5492 28.4561 38.9504C28.7669 38.8488 29.0703 38.7412 29.3581 38.6315C29.7216 38.4942 30.0902 38.3422 30.4552 38.1797C32.4845 37.281 34.3614 36.0715 36.0183 34.5948L36.0814 34.5377C38.0103 32.8172 39.6046 30.7552 40.7841 28.4553C41.377 27.3 41.8627 26.0928 42.235 24.8489C42.6044 23.6047 42.8616 22.33 43.0035 21.0399C43.4328 17.1688 42.7701 13.2548 41.0905 9.74076C40.5355 8.58484 39.8766 7.48175 39.1219 6.44513C37.6199 4.37974 35.7473 2.61131 33.5995 1.22983C32.989 0.835824 32.3576 0.475293 31.708 0.149835C32.3336 0.514266 32.9401 0.910385 33.5253 1.33665C35.557 2.81488 37.3071 4.64561 38.6924 6.74183C40.7547 9.8456 41.9359 13.451 42.1099 17.1734C42.2839 20.8958 41.4442 24.5956 39.6804 27.8782C38.7963 29.5149 37.6906 31.0218 36.3944 32.3562L36.3403 32.4118C36.2431 32.512 36.1437 32.6114 36.0436 32.7085C35.7469 33.0052 35.4301 33.2923 35.1112 33.5682C34.1866 34.3671 33.1938 35.0834 32.1441 35.7089C31.642 36.0056 31.125 36.2845 30.6072 36.533L30.335 36.6636C29.844 36.8913 29.3455 37.1005 28.847 37.2844L28.6979 37.3356Z" fill="#081226"/>
<path d="M7.61816 10.3624L7.62632 32.196C7.66193 32.2331 7.7005 32.2702 7.73462 32.3058C7.76874 32.3414 7.80138 32.3733 7.8355 32.4066C7.88445 32.4556 7.93415 32.5038 7.98385 32.555L8.0788 32.647C8.13443 32.7004 8.19154 32.7538 8.24866 32.8064L8.32803 32.8806C8.41209 32.9583 8.4969 33.0351 8.58245 33.1113C9.4772 33.9086 10.4411 34.6247 11.4627 35.2513C11.5937 35.3314 11.726 35.41 11.8595 35.4871C11.9026 35.5124 11.9463 35.5368 11.9901 35.5613C12.0806 35.6132 12.1711 35.6644 12.2623 35.7149L12.4158 35.7972C12.5012 35.8439 12.5872 35.8892 12.6732 35.9337L12.8305 36.0145L12.9254 36.0613L12.918 15.0095L7.61816 10.3624Z" fill="#081226"/>
<path d="M15.3154 12.8228L15.3243 37.0715L15.4386 37.1109L15.5825 37.1598L15.7679 37.2199L15.9103 37.2651L16.1017 37.3237L16.2404 37.3653L16.4399 37.4216L16.5734 37.4587C16.6476 37.4788 16.7166 37.4973 16.7886 37.5159L16.9087 37.547C16.9933 37.5685 17.0778 37.5885 17.1631 37.6093L17.2462 37.6293C17.359 37.6553 17.4687 37.6813 17.5859 37.7035L17.6601 37.7184C17.7491 37.7376 17.8381 37.7554 17.9272 37.7732L18.054 37.797L18.2706 37.8378L18.4145 37.8623C18.482 37.8734 18.5487 37.8852 18.6162 37.8956L18.7646 37.9186L18.9597 37.9483L19.1169 37.9691L19.309 37.9943L19.4693 38.0136L19.6606 38.0351L19.8231 38.0514L20.0137 38.0692L20.1776 38.0833L20.3683 38.0974C20.4232 38.1018 20.4781 38.1056 20.5329 38.1085L20.6197 38.1137L20.6131 17.4647L15.3154 12.8228Z" fill="#081226"/>
<path d="M23.0137 19.9288L23.0203 38.1219H23.076L23.2065 38.113L23.3719 38.1018L23.5025 38.0915L23.6672 38.0774L23.7977 38.0655L23.9639 38.0484L24.0922 38.0351L24.2613 38.0151L24.3859 38.0002L24.5617 37.9765L24.6789 37.9609L24.8733 37.932L24.9704 37.9171C25.0669 37.9023 25.164 37.886 25.2605 37.8697C25.391 37.8469 25.5215 37.8222 25.6521 37.7955L25.7841 37.7681C25.8709 37.7503 25.9577 37.7325 26.0437 37.7132C26.0964 37.702 26.1491 37.6894 26.2017 37.6768C26.2796 37.659 26.3575 37.642 26.4361 37.6227C26.4925 37.6093 26.5489 37.5945 26.6045 37.5804L26.827 37.524C26.8849 37.5092 26.9428 37.4929 27.0006 37.4765L27.218 37.4172L27.3952 37.3653L27.6074 37.3015C27.6675 37.2837 27.7268 37.2644 27.7861 37.2451L27.9968 37.1776L28.1748 37.1183L28.3187 37.0686L28.3106 15.2832L23.0137 19.9288Z" fill="#081226"/>
<path d="M30.7119 22.3892L30.7171 36.0553L30.7787 36.0242L30.9003 35.9626L31.1347 35.8402L31.2586 35.7735C31.3394 35.7297 31.4196 35.6859 31.5004 35.6407L31.6087 35.5806C31.7229 35.5153 31.8379 35.4493 31.9514 35.3818C32.9814 34.7678 33.9556 34.0646 34.8628 33.2804C34.9647 33.1924 35.0658 33.1031 35.1662 33.0126L35.2685 32.9184C35.3338 32.8584 35.3998 32.7983 35.4643 32.7375C35.5044 32.7004 35.543 32.6633 35.583 32.624C35.6409 32.5683 35.6995 32.5134 35.7566 32.4571L35.879 32.3347L36.014 32.1989L36.0088 17.7413L30.7119 22.3892Z" fill="#081226"/>
<path d="M22.3322 2.76157L23.0828 5.06843L25.5076 5.06695L23.5464 6.49335L24.2964 8.80021L22.3337 7.3753L20.3725 8.80095L21.1209 6.49409L19.1582 5.06917L21.5838 5.06843L22.3322 2.76157Z" fill="#081226"/>
<path d="M15.9843 5.80054L16.7342 8.1074L19.1598 8.10592L17.1978 9.53232L17.9485 11.8392L15.9858 10.4143L14.0238 11.8399L14.7723 9.53306L12.8096 8.10814L15.2351 8.1074L15.9843 5.80054Z" fill="#081226"/>
<path d="M28.6828 5.7961L29.4327 8.10296L31.8582 8.10148L29.897 9.52788L30.6469 11.8347L28.6843 10.4098L26.7223 11.8355L27.4715 9.52862L25.5088 8.1037L27.9343 8.10296L28.6828 5.7961Z" fill="#081226"/>
</svg>
